<?xml version="1.0" encoding="UTF-8"?>
<svg id="Layer_1" data-name="Layer 1" xmlns="http://www.w3.org/2000/svg" viewBox="0 0 31.5 31.5">
  <defs>
    <style>
      .cls-1 {
        fill: #ec2429;
        isolation: isolate;
      }
    </style>
  </defs>
  <path class="cls-1" d="M18.64,15.8L30.8,3.6c.8-.8.8-2.1,0-2.9-.8-.8-2.09-.8-2.89,0l-12.16,12.1L3.59.6C2.79-.2,1.5-.2.7.6-.1,1.4-.1,2.7.7,3.5l12.16,12.2L.6,28c-.8.8-.8,2.1,0,2.9.4.4.9.6,1.5.6s1.1-.2,1.5-.6l12.16-12.2,12.16,12.2c.4.4.9.6,1.5.6s1.1-.2,1.5-.6c.8-.8.8-2.1,0-2.9l-12.26-12.2Z"/>
</svg>