<?xml version="1.0" encoding="UTF-8"?>
<svg id="Layer_1" data-name="Layer 1" xmlns="http://www.w3.org/2000/svg" viewBox="0 0 57.81 104.5">
  <defs>
    <style>
      .cls-1 {
        fill: none;
        stroke: #f26522;
        stroke-miterlimit: 10;
        stroke-width: 5.88px;
      }

      .cls-2 {
        fill: #c3d7dc;
      }

      .cls-3 {
        fill: #00aed6;
      }

      .cls-4 {
        fill: #f6d2ba;
      }

      .cls-5 {
        fill: #8b5e3c;
      }
    </style>
  </defs>
  <g>
    <line class="cls-1" x1="17.9" y1="93.9" x2="39" y2="93.9"/>
    <line class="cls-1" x1="28.4" y1="104.5" x2="28.4" y2="83.3"/>
  </g>
  <g>
    <path class="cls-4" d="M50.5,7.5c-1.2-2.1-3.1-3.3-5.6-2.7-3.3.8-5.9-.4-8.7-2.1-1.4-.8-2.8-1.6-4.3-2.1-1.3-.4-2.6-.6-3.8-.6h0c-1.3,0-2.6.2-3.8.6-1.5.5-2.9,1.3-4.3,2.1-2.9,1.7-5.5,2.9-8.7,2.1-2.5-.6-4.4.6-5.6,2.7-1.3,2.2-2,5-1.9,7.6,0,3.3,1.2,6.2,3.7,8.3,2.7,2.3,6.4,4.2,10,3,2-.7,3.4-2.7,1.4-4.1-.2-.2-.4-.4-.4-.6,0-.1,2.2.4,2.5.5,2.7,1.2,4,5.5,7.2,5.4h0c3.3.1,4.5-4.2,7.2-5.4.3-.1,2.5-.7,2.5-.5,0,.3-.2.5-.4.6-2.1,1.4-.6,3.5,1.4,4.1,3.6,1.2,7.3-.7,10-3,2.4-2.1,3.6-5.1,3.7-8.3-.1-2.5-.8-5.3-2.1-7.6Z"/>
    <path class="cls-5" d="M12.1,20.8s.2-.2.5-.6c.1-.2.4-.3.6-.5.3-.2.6-.3.9-.5.3-.1.7-.2,1.1-.3.4,0,.8-.1,1.3,0,.4.1.9.2,1.3.4l1.2.6c.8.4,1.6.9,2.2,1.5.6.6,1.2,1.1,1.6,1.7.2.3.4.5.5.8.1.2.3.4.3.6.2.3.3.5.3.5l-.3.2s-.2-.1-.4-.3c-.3-.2-.7-.5-1.2-.8s-1.1-.6-1.8-.9c-.3-.1-.7-.2-1-.3-.4-.1-.7-.2-1.1-.3-.4-.1-.7-.1-1.1-.1h-1c-.3-.1-.6-.1-.9-.2-.3-.1-.6-.2-.9-.3-.3-.1-.5-.2-.8-.3l-.6-.3-.6-.3-.1-.3Z"/>
    <path class="cls-5" d="M44,21.1s-.2.2-.6.3c-.2.1-.4.2-.6.3-.2.1-.5.2-.8.3-.3.1-.6.2-.9.3-.3.1-.6.2-.9.2h-1c-.4,0-.7,0-1.1.1-.4.1-.7.2-1.1.3-.3.1-.7.2-1,.3-.7.3-1.3.6-1.8.9s-.9.6-1.2.8c-.3.2-.4.3-.4.3l-.3-.2s.1-.2.3-.5c.1-.2.2-.4.3-.6s.3-.5.5-.8c.4-.5.9-1.1,1.6-1.7.6-.6,1.4-1.1,2.2-1.5l1.2-.6c.4-.2.9-.4,1.3-.4.4-.1.9-.1,1.3,0s.8.1,1.1.3c.3.1.6.3.9.5s.5.3.6.5c.3.3.5.6.5.6l-.1.3Z"/>
    <path class="cls-2" d="M0,47.5s9.5-3.4,14.2-13.9L0,47.5Z"/>
    <path class="cls-2" d="M10.5,50s7.2-7.1,7-18.6l-7,18.6Z"/>
    <path class="cls-2" d="M56.5,47.5s-9.5-3.4-14.2-13.9l14.2,13.9Z"/>
    <path class="cls-2" d="M46.1,50s-7.2-7.1-7-18.6l7,18.6Z"/>
  </g>
  <g>
    <polygon class="cls-3" points="31.2 78.12 23.59 77.95 17.05 70.09 10.51 77.95 2.78 77.95 6.02 74.21 13.25 65.52 6.02 56.83 2.78 53.09 10.51 53.09 17.05 60.95 23.59 53.09 31.16 52.92 28.08 56.82 27.98 56.94 20.85 65.52 28.01 74.13 28.08 74.22 31.2 78.12"/>
    <path class="cls-3" d="M57.81,61.62c-.06-.96-.31-2.71-1.49-4.47-.93-1.4-2.07-2.23-2.52-2.56-.67-.49-1.25-.79-1.47-.9-1.58-.79-2.98-.97-4.03-1.09-1.26-.15-3.07-.35-5.31.2-.85.21-2.42.61-4.03,1.78-2.6,1.88-3.49,4.44-3.88,5.55-.59,1.68-.66,3.07-.73,4.5-.12,2.33.19,4.01.26,4.4.2,1.05.46,2.31,1.26,3.79.68,1.25,1.42,2.01,1.6,2.2.26.26.94.93,2,1.56.9.54,1.66.81,2.05.94,3.81,1.33,7.87.53,7.87.53.88-.17,2.32-.47,3.91-1.4,1.34-.78,2.13-1.63,2.3-1.81.99-1.07,1.49-2.16,1.76-2.86l.37-2.43c-2.24-.03-4.48-.07-6.72-.1.02.18.04.43.02.73-.01.21-.03.51-.15.86-.08.23-.23.6-.56.99-.35.31-.7.63-1.05.94-.95.41-1.77.55-2.31.6-.68.06-1.67.16-2.79-.29-.32-.13-1.04-.43-1.68-1.14-.4-.45-.61-.9-.73-1.2-.12-.41-.24-.86-.34-1.33-.24-1.19-.31-2.28-.3-3.2-.02-1.9.09-3.35.2-4.3.05-.44.14-1.17.48-2.05.19-.49.39-1,.87-1.54.19-.22.62-.69,1.35-1,.47-.21.85-.25,1.39-.32,1.02-.13,1.81-.02,2.01.02.55.08,1.07.16,1.66.48,1.13.6,1.62,1.57,1.76,1.89.36.8.36,1.53.33,1.92,2.22.04,4.43.08,6.65.12Z"/>
  </g>
</svg>